<?xml version="1.0" encoding="UTF-8" standalone="no"?>
<!DOCTYPE svg PUBLIC "-//W3C//DTD SVG 1.1//EN"
 "http://www.w3.org/Graphics/SVG/1.1/DTD/svg11.dtd">
<!-- Generated by graphviz version 2.40.1 (20161225.0304)
 -->
<!-- Title: dependencies Pages: 1 -->
<svg width="684pt" height="284pt"
 viewBox="0.00 0.00 684.00 284.00" xmlns="http://www.w3.org/2000/svg" xmlns:xlink="http://www.w3.org/1999/xlink">
<g id="graph0" class="graph" transform="scale(1 1) rotate(0) translate(4 280)">
<title>dependencies</title>
<polygon fill="#ffffff" stroke="transparent" points="-4,4 -4,-280 680,-280 680,4 -4,4"/>
<text text-anchor="start" x="317.0091" y="-42.4" font-family="sans-serif" font-weight="bold" font-size="14.00" fill="#000000">Legend</text>
<polygon fill="#ffffb3" stroke="transparent" points="104,-10 104,-30 124,-30 124,-10 104,-10"/>
<text text-anchor="start" x="127.629" y="-15.4" font-family="sans-serif" font-size="14.00" fill="#000000"> &#160;Declarations</text>
<polygon fill="#8dd3c7" stroke="transparent" points="217,-10 217,-30 237,-30 237,-10 217,-10"/>
<text text-anchor="start" x="240.7251" y="-15.4" font-family="sans-serif" font-size="14.00" fill="#000000"> &#160;Module</text>
<polygon fill="#80b1d3" stroke="transparent" points="303,-10 303,-30 323,-30 323,-10 303,-10"/>
<text text-anchor="start" x="326.7812" y="-15.4" font-family="sans-serif" font-size="14.00" fill="#000000"> &#160;Bootstrap</text>
<polygon fill="#fdb462" stroke="transparent" points="400,-10 400,-30 420,-30 420,-10 400,-10"/>
<text text-anchor="start" x="423.6732" y="-15.4" font-family="sans-serif" font-size="14.00" fill="#000000"> &#160;Providers</text>
<polygon fill="#fb8072" stroke="transparent" points="496,-10 496,-30 516,-30 516,-10 496,-10"/>
<text text-anchor="start" x="519.7258" y="-15.4" font-family="sans-serif" font-size="14.00" fill="#000000"> &#160;Exports</text>
<g id="clust1" class="cluster">
<title>cluster_KeyboardShortcutsModule</title>
<polygon fill="none" stroke="#000000" stroke-dasharray="1,5" points="8,-70 8,-268 668,-268 668,-70 8,-70"/>
</g>
<g id="clust2" class="cluster">
<title>cluster_KeyboardShortcutsModule_declarations</title>
<polygon fill="none" stroke="#000000" points="22,-78 22,-130 656,-130 656,-78 22,-78"/>
</g>
<g id="clust7" class="cluster">
<title>cluster_KeyboardShortcutsModule_exports</title>
<polygon fill="none" stroke="#000000" points="16,-208 16,-260 660,-260 660,-208 16,-208"/>
</g>
<!-- KeyboardShortcutsComponent -->
<g id="node1" class="node">
<title>KeyboardShortcutsComponent</title>
<polygon fill="#ffffb3" stroke="#000000" points="647.9128,-122 458.0872,-122 458.0872,-86 647.9128,-86 647.9128,-122"/>
<text text-anchor="middle" x="553" y="-99.8" font-family="Times,serif" font-size="14.00" fill="#000000">KeyboardShortcutsComponent</text>
</g>
<!-- KeyboardShortcutsModule -->
<g id="node4" class="node">
<title>KeyboardShortcutsModule</title>
<polygon fill="#8dd3c7" stroke="#000000" points="435.6302,-187 432.6302,-191 411.6302,-191 408.6302,-187 268.3698,-187 268.3698,-151 435.6302,-151 435.6302,-187"/>
<text text-anchor="middle" x="352" y="-164.8" font-family="Times,serif" font-size="14.00" fill="#000000">KeyboardShortcutsModule</text>
</g>
<!-- KeyboardShortcutsComponent&#45;&gt;KeyboardShortcutsModule -->
<g id="edge1" class="edge">
<title>KeyboardShortcutsComponent&#45;&gt;KeyboardShortcutsModule</title>
<path fill="none" stroke="#000000" d="M584.9854,-122.0225C584.9854,-139.3734 584.9854,-163 584.9854,-163 584.9854,-163 445.7839,-163 445.7839,-163"/>
<polygon fill="#000000" stroke="#000000" points="445.7839,-159.5001 435.7839,-163 445.7839,-166.5001 445.7839,-159.5001"/>
</g>
<!-- KeyboardShortcutsDirective -->
<g id="node2" class="node">
<title>KeyboardShortcutsDirective</title>
<polygon fill="#ffffb3" stroke="#000000" points="440.1629,-122 263.8371,-122 263.8371,-86 440.1629,-86 440.1629,-122"/>
<text text-anchor="middle" x="352" y="-99.8" font-family="Times,serif" font-size="14.00" fill="#000000">KeyboardShortcutsDirective</text>
</g>
<!-- KeyboardShortcutsDirective&#45;&gt;KeyboardShortcutsModule -->
<g id="edge2" class="edge">
<title>KeyboardShortcutsDirective&#45;&gt;KeyboardShortcutsModule</title>
<path fill="none" stroke="#000000" d="M352,-122.1061C352,-122.1061 352,-140.991 352,-140.991"/>
<polygon fill="#000000" stroke="#000000" points="348.5001,-140.9909 352,-150.991 355.5001,-140.991 348.5001,-140.9909"/>
</g>
<!-- KeyboardShortcutsHelpComponent -->
<g id="node3" class="node">
<title>KeyboardShortcutsHelpComponent</title>
<polygon fill="#ffffb3" stroke="#000000" points="246.1245,-122 29.8755,-122 29.8755,-86 246.1245,-86 246.1245,-122"/>
<text text-anchor="middle" x="138" y="-99.8" font-family="Times,serif" font-size="14.00" fill="#000000">KeyboardShortcutsHelpComponent</text>
</g>
<!-- KeyboardShortcutsHelpComponent&#45;&gt;KeyboardShortcutsModule -->
<g id="edge3" class="edge">
<title>KeyboardShortcutsHelpComponent&#45;&gt;KeyboardShortcutsModule</title>
<path fill="none" stroke="#000000" d="M172.604,-122.0225C172.604,-139.3734 172.604,-163 172.604,-163 172.604,-163 258.3421,-163 258.3421,-163"/>
<polygon fill="#000000" stroke="#000000" points="258.3421,-166.5001 268.3421,-163 258.342,-159.5001 258.3421,-166.5001"/>
</g>
<!-- KeyboardShortcutsComponent  -->
<g id="node5" class="node">
<title>KeyboardShortcutsComponent </title>
<polygon fill="#fb8072" stroke="#000000" points="652.4124,-252 459.5876,-252 459.5876,-216 652.4124,-216 652.4124,-252"/>
<text text-anchor="middle" x="556" y="-229.8" font-family="Times,serif" font-size="14.00" fill="#000000">KeyboardShortcutsComponent </text>
</g>
<!-- KeyboardShortcutsModule&#45;&gt;KeyboardShortcutsComponent  -->
<g id="edge4" class="edge">
<title>KeyboardShortcutsModule&#45;&gt;KeyboardShortcutsComponent </title>
<path fill="none" stroke="#000000" stroke-dasharray="5,2" d="M435.6359,-175C478.695,-175 522.2646,-175 522.2646,-175 522.2646,-175 522.2646,-205.9775 522.2646,-205.9775"/>
<polygon fill="#000000" stroke="#000000" points="518.7647,-205.9774 522.2646,-215.9775 525.7647,-205.9775 518.7647,-205.9774"/>
</g>
<!-- KeyboardShortcutsDirective  -->
<g id="node6" class="node">
<title>KeyboardShortcutsDirective </title>
<polygon fill="#fb8072" stroke="#000000" points="441.6631,-252 262.3369,-252 262.3369,-216 441.6631,-216 441.6631,-252"/>
<text text-anchor="middle" x="352" y="-229.8" font-family="Times,serif" font-size="14.00" fill="#000000">KeyboardShortcutsDirective </text>
</g>
<!-- KeyboardShortcutsModule&#45;&gt;KeyboardShortcutsDirective  -->
<g id="edge5" class="edge">
<title>KeyboardShortcutsModule&#45;&gt;KeyboardShortcutsDirective </title>
<path fill="none" stroke="#000000" stroke-dasharray="5,2" d="M352,-187.1061C352,-187.1061 352,-205.991 352,-205.991"/>
<polygon fill="#000000" stroke="#000000" points="348.5001,-205.9909 352,-215.991 355.5001,-205.991 348.5001,-205.9909"/>
</g>
<!-- KeyboardShortcutsHelpComponent  -->
<g id="node7" class="node">
<title>KeyboardShortcutsHelpComponent </title>
<polygon fill="#fb8072" stroke="#000000" points="244.1242,-252 23.8758,-252 23.8758,-216 244.1242,-216 244.1242,-252"/>
<text text-anchor="middle" x="134" y="-229.8" font-family="Times,serif" font-size="14.00" fill="#000000">KeyboardShortcutsHelpComponent </text>
</g>
<!-- KeyboardShortcutsModule&#45;&gt;KeyboardShortcutsHelpComponent  -->
<g id="edge6" class="edge">
<title>KeyboardShortcutsModule&#45;&gt;KeyboardShortcutsHelpComponent </title>
<path fill="none" stroke="#000000" stroke-dasharray="5,2" d="M268.1205,-175C195.1954,-175 101.146,-175 101.146,-175 101.146,-175 101.146,-205.9775 101.146,-205.9775"/>
<polygon fill="#000000" stroke="#000000" points="97.6459,-205.9775 101.146,-215.9775 104.6459,-205.9774 97.6459,-205.9775"/>
</g>
</g>
</svg>
