<?xml version="1.0" encoding="UTF-8" standalone="no"?>
<!DOCTYPE svg PUBLIC "-//W3C//DTD SVG 1.1//EN"
 "http://www.w3.org/Graphics/SVG/1.1/DTD/svg11.dtd">
<!-- Generated by graphviz version 2.40.1 (20161225.0304)
 -->
<!-- Title: dependencies Pages: 1 -->
<svg width="736pt" height="284pt"
 viewBox="0.00 0.00 736.00 284.00" xmlns="http://www.w3.org/2000/svg" xmlns:xlink="http://www.w3.org/1999/xlink">
<g id="graph0" class="graph" transform="scale(1 1) rotate(0) translate(4 280)">
<title>dependencies</title>
<polygon fill="#ffffff" stroke="transparent" points="-4,4 -4,-280 732,-280 732,4 -4,4"/>
<text text-anchor="start" x="343.0091" y="-42.4" font-family="sans-serif" font-weight="bold" font-size="14.00" fill="#000000">Legend</text>
<polygon fill="#ffffb3" stroke="transparent" points="130,-10 130,-30 150,-30 150,-10 130,-10"/>
<text text-anchor="start" x="153.629" y="-15.4" font-family="sans-serif" font-size="14.00" fill="#000000"> &#160;Declarations</text>
<polygon fill="#8dd3c7" stroke="transparent" points="243,-10 243,-30 263,-30 263,-10 243,-10"/>
<text text-anchor="start" x="266.7251" y="-15.4" font-family="sans-serif" font-size="14.00" fill="#000000"> &#160;Module</text>
<polygon fill="#80b1d3" stroke="transparent" points="329,-10 329,-30 349,-30 349,-10 329,-10"/>
<text text-anchor="start" x="352.7812" y="-15.4" font-family="sans-serif" font-size="14.00" fill="#000000"> &#160;Bootstrap</text>
<polygon fill="#fdb462" stroke="transparent" points="426,-10 426,-30 446,-30 446,-10 426,-10"/>
<text text-anchor="start" x="449.6732" y="-15.4" font-family="sans-serif" font-size="14.00" fill="#000000"> &#160;Providers</text>
<polygon fill="#fb8072" stroke="transparent" points="522,-10 522,-30 542,-30 542,-10 522,-10"/>
<text text-anchor="start" x="545.7258" y="-15.4" font-family="sans-serif" font-size="14.00" fill="#000000"> &#160;Exports</text>
<g id="clust1" class="cluster">
<title>cluster_KeyboardShortcutsModule</title>
<polygon fill="none" stroke="#000000" stroke-dasharray="1,5" points="8,-70 8,-268 720,-268 720,-70 8,-70"/>
</g>
<g id="clust2" class="cluster">
<title>cluster_KeyboardShortcutsModule_declarations</title>
<polygon fill="none" stroke="#000000" points="21,-78 21,-130 707,-130 707,-78 21,-78"/>
</g>
<g id="clust7" class="cluster">
<title>cluster_KeyboardShortcutsModule_exports</title>
<polygon fill="none" stroke="#000000" points="16,-208 16,-260 712,-260 712,-208 16,-208"/>
</g>
<!-- NgKeyboardShortcutsComponent -->
<g id="node1" class="node">
<title>NgKeyboardShortcutsComponent</title>
<polygon fill="#ffffb3" stroke="#000000" points="699.0196,-122 492.9804,-122 492.9804,-86 699.0196,-86 699.0196,-122"/>
<text text-anchor="middle" x="596" y="-99.8" font-family="Times,serif" font-size="14.00" fill="#000000">NgKeyboardShortcutsComponent</text>
</g>
<!-- KeyboardShortcutsModule -->
<g id="node4" class="node">
<title>KeyboardShortcutsModule</title>
<polygon fill="#8dd3c7" stroke="#000000" points="461.6302,-187 458.6302,-191 437.6302,-191 434.6302,-187 294.3698,-187 294.3698,-151 461.6302,-151 461.6302,-187"/>
<text text-anchor="middle" x="378" y="-164.8" font-family="Times,serif" font-size="14.00" fill="#000000">KeyboardShortcutsModule</text>
</g>
<!-- NgKeyboardShortcutsComponent&#45;&gt;KeyboardShortcutsModule -->
<g id="edge1" class="edge">
<title>NgKeyboardShortcutsComponent&#45;&gt;KeyboardShortcutsModule</title>
<path fill="none" stroke="#000000" d="M630.8365,-122.0225C630.8365,-139.3734 630.8365,-163 630.8365,-163 630.8365,-163 471.8397,-163 471.8397,-163"/>
<polygon fill="#000000" stroke="#000000" points="471.8397,-159.5001 461.8397,-163 471.8397,-166.5001 471.8397,-159.5001"/>
</g>
<!-- NgKeyboardShortcutsDirective -->
<g id="node2" class="node">
<title>NgKeyboardShortcutsDirective</title>
<polygon fill="#ffffb3" stroke="#000000" points="474.7696,-122 281.2304,-122 281.2304,-86 474.7696,-86 474.7696,-122"/>
<text text-anchor="middle" x="378" y="-99.8" font-family="Times,serif" font-size="14.00" fill="#000000">NgKeyboardShortcutsDirective</text>
</g>
<!-- NgKeyboardShortcutsDirective&#45;&gt;KeyboardShortcutsModule -->
<g id="edge2" class="edge">
<title>NgKeyboardShortcutsDirective&#45;&gt;KeyboardShortcutsModule</title>
<path fill="none" stroke="#000000" d="M378,-122.1061C378,-122.1061 378,-140.991 378,-140.991"/>
<polygon fill="#000000" stroke="#000000" points="374.5001,-140.9909 378,-150.991 381.5001,-140.991 374.5001,-140.9909"/>
</g>
<!-- NgKeyboardShortcutsHelpComponent -->
<g id="node3" class="node">
<title>NgKeyboardShortcutsHelpComponent</title>
<polygon fill="#ffffb3" stroke="#000000" points="262.731,-122 29.269,-122 29.269,-86 262.731,-86 262.731,-122"/>
<text text-anchor="middle" x="146" y="-99.8" font-family="Times,serif" font-size="14.00" fill="#000000">NgKeyboardShortcutsHelpComponent</text>
</g>
<!-- NgKeyboardShortcutsHelpComponent&#45;&gt;KeyboardShortcutsModule -->
<g id="edge3" class="edge">
<title>NgKeyboardShortcutsHelpComponent&#45;&gt;KeyboardShortcutsModule</title>
<path fill="none" stroke="#000000" d="M184.1218,-122.0225C184.1218,-139.3734 184.1218,-163 184.1218,-163 184.1218,-163 284.0898,-163 284.0898,-163"/>
<polygon fill="#000000" stroke="#000000" points="284.0898,-166.5001 294.0898,-163 284.0898,-159.5001 284.0898,-166.5001"/>
</g>
<!-- NgKeyboardShortcutsComponent  -->
<g id="node5" class="node">
<title>NgKeyboardShortcutsComponent </title>
<polygon fill="#fb8072" stroke="#000000" points="704.019,-252 493.981,-252 493.981,-216 704.019,-216 704.019,-252"/>
<text text-anchor="middle" x="599" y="-229.8" font-family="Times,serif" font-size="14.00" fill="#000000">NgKeyboardShortcutsComponent </text>
</g>
<!-- KeyboardShortcutsModule&#45;&gt;NgKeyboardShortcutsComponent  -->
<g id="edge4" class="edge">
<title>KeyboardShortcutsModule&#45;&gt;NgKeyboardShortcutsComponent </title>
<path fill="none" stroke="#000000" stroke-dasharray="5,2" d="M461.8427,-175C510.5583,-175 562.4135,-175 562.4135,-175 562.4135,-175 562.4135,-205.9775 562.4135,-205.9775"/>
<polygon fill="#000000" stroke="#000000" points="558.9136,-205.9774 562.4135,-215.9775 565.9136,-205.9775 558.9136,-205.9774"/>
</g>
<!-- NgKeyboardShortcutsDirective  -->
<g id="node6" class="node">
<title>NgKeyboardShortcutsDirective </title>
<polygon fill="#fb8072" stroke="#000000" points="476.2695,-252 279.7305,-252 279.7305,-216 476.2695,-216 476.2695,-252"/>
<text text-anchor="middle" x="378" y="-229.8" font-family="Times,serif" font-size="14.00" fill="#000000">NgKeyboardShortcutsDirective </text>
</g>
<!-- KeyboardShortcutsModule&#45;&gt;NgKeyboardShortcutsDirective  -->
<g id="edge5" class="edge">
<title>KeyboardShortcutsModule&#45;&gt;NgKeyboardShortcutsDirective </title>
<path fill="none" stroke="#000000" stroke-dasharray="5,2" d="M378,-187.1061C378,-187.1061 378,-205.991 378,-205.991"/>
<polygon fill="#000000" stroke="#000000" points="374.5001,-205.9909 378,-215.991 381.5001,-205.991 374.5001,-205.9909"/>
</g>
<!-- NgKeyboardShortcutsHelpComponent  -->
<g id="node7" class="node">
<title>NgKeyboardShortcutsHelpComponent </title>
<polygon fill="#fb8072" stroke="#000000" points="261.7309,-252 24.2691,-252 24.2691,-216 261.7309,-216 261.7309,-252"/>
<text text-anchor="middle" x="143" y="-229.8" font-family="Times,serif" font-size="14.00" fill="#000000">NgKeyboardShortcutsHelpComponent </text>
</g>
<!-- KeyboardShortcutsModule&#45;&gt;NgKeyboardShortcutsHelpComponent  -->
<g id="edge6" class="edge">
<title>KeyboardShortcutsModule&#45;&gt;NgKeyboardShortcutsHelpComponent </title>
<path fill="none" stroke="#000000" stroke-dasharray="5,2" d="M294.3652,-175C214.6297,-175 106.6282,-175 106.6282,-175 106.6282,-175 106.6282,-205.9775 106.6282,-205.9775"/>
<polygon fill="#000000" stroke="#000000" points="103.1283,-205.9774 106.6282,-215.9775 110.1283,-205.9775 103.1283,-205.9774"/>
</g>
</g>
</svg>
