<?xml version="1.0" encoding="UTF-8" standalone="no"?>
<!DOCTYPE svg PUBLIC "-//W3C//DTD SVG 1.1//EN"
 "http://www.w3.org/Graphics/SVG/1.1/DTD/svg11.dtd">
<!-- Generated by graphviz version 2.47.3 (20210619.1520)
 -->
<!-- Title: dependencies Pages: 1 -->
<svg width="684pt" height="247pt"
 viewBox="0.00 0.00 684.00 246.80" xmlns="http://www.w3.org/2000/svg" xmlns:xlink="http://www.w3.org/1999/xlink">
<g id="graph0" class="graph" transform="scale(1 1) rotate(0) translate(4 242.8)">
<title>dependencies</title>
<polygon fill="white" stroke="transparent" points="-4,4 -4,-242.8 680,-242.8 680,4 -4,4"/>
<text text-anchor="middle" x="338" y="-8.2" font-family="sans-serif" font-size="14.00">dependencies</text>
<g id="clust1" class="cluster">
<title>cluster_KeyboardShortcutsModule</title>
<polygon fill="none" stroke="black" stroke-dasharray="1,5" points="8,-32.8 8,-230.8 668,-230.8 668,-32.8 8,-32.8"/>
</g>
<g id="clust7" class="cluster">
<title>cluster_KeyboardShortcutsModule_exports</title>
<polygon fill="none" stroke="black" points="16,-170.8 16,-222.8 660,-222.8 660,-170.8 16,-170.8"/>
</g>
<g id="clust2" class="cluster">
<title>cluster_KeyboardShortcutsModule_declarations</title>
<polygon fill="none" stroke="black" points="22,-40.8 22,-92.8 656,-92.8 656,-40.8 22,-40.8"/>
</g>
<!-- KeyboardShortcutsComponent -->
<g id="node1" class="node">
<title>KeyboardShortcutsComponent</title>
<polygon fill="#ffffb3" stroke="black" points="647.91,-84.8 458.09,-84.8 458.09,-48.8 647.91,-48.8 647.91,-84.8"/>
<text text-anchor="middle" x="553" y="-62.6" font-family="Times,serif" font-size="14.00">KeyboardShortcutsComponent</text>
</g>
<!-- KeyboardShortcutsModule -->
<g id="node4" class="node">
<title>KeyboardShortcutsModule</title>
<polygon fill="#8dd3c7" stroke="black" points="435.63,-149.8 432.63,-153.8 411.63,-153.8 408.63,-149.8 268.37,-149.8 268.37,-113.8 435.63,-113.8 435.63,-149.8"/>
<text text-anchor="middle" x="352" y="-127.6" font-family="Times,serif" font-size="14.00">KeyboardShortcutsModule</text>
</g>
<!-- KeyboardShortcutsComponent&#45;&gt;KeyboardShortcutsModule -->
<g id="edge1" class="edge">
<title>KeyboardShortcutsComponent&#45;&gt;KeyboardShortcutsModule</title>
<path fill="none" stroke="black" d="M584.99,-84.82C584.99,-102.17 584.99,-125.8 584.99,-125.8 584.99,-125.8 445.78,-125.8 445.78,-125.8"/>
<polygon fill="black" stroke="black" points="445.78,-122.3 435.78,-125.8 445.78,-129.3 445.78,-122.3"/>
</g>
<!-- KeyboardShortcutsDirective -->
<g id="node2" class="node">
<title>KeyboardShortcutsDirective</title>
<polygon fill="#ffffb3" stroke="black" points="440.16,-84.8 263.84,-84.8 263.84,-48.8 440.16,-48.8 440.16,-84.8"/>
<text text-anchor="middle" x="352" y="-62.6" font-family="Times,serif" font-size="14.00">KeyboardShortcutsDirective</text>
</g>
<!-- KeyboardShortcutsDirective&#45;&gt;KeyboardShortcutsModule -->
<g id="edge2" class="edge">
<title>KeyboardShortcutsDirective&#45;&gt;KeyboardShortcutsModule</title>
<path fill="none" stroke="black" d="M352,-84.91C352,-84.91 352,-103.79 352,-103.79"/>
<polygon fill="black" stroke="black" points="348.5,-103.79 352,-113.79 355.5,-103.79 348.5,-103.79"/>
</g>
<!-- KeyboardShortcutsHelpComponent -->
<g id="node3" class="node">
<title>KeyboardShortcutsHelpComponent</title>
<polygon fill="#ffffb3" stroke="black" points="246.12,-84.8 29.88,-84.8 29.88,-48.8 246.12,-48.8 246.12,-84.8"/>
<text text-anchor="middle" x="138" y="-62.6" font-family="Times,serif" font-size="14.00">KeyboardShortcutsHelpComponent</text>
</g>
<!-- KeyboardShortcutsHelpComponent&#45;&gt;KeyboardShortcutsModule -->
<g id="edge3" class="edge">
<title>KeyboardShortcutsHelpComponent&#45;&gt;KeyboardShortcutsModule</title>
<path fill="none" stroke="black" d="M172.6,-84.82C172.6,-102.17 172.6,-125.8 172.6,-125.8 172.6,-125.8 258.34,-125.8 258.34,-125.8"/>
<polygon fill="black" stroke="black" points="258.34,-129.3 268.34,-125.8 258.34,-122.3 258.34,-129.3"/>
</g>
<!-- KeyboardShortcutsComponent  -->
<g id="node5" class="node">
<title>KeyboardShortcutsComponent </title>
<polygon fill="#fb8072" stroke="black" points="652.41,-214.8 459.59,-214.8 459.59,-178.8 652.41,-178.8 652.41,-214.8"/>
<text text-anchor="middle" x="556" y="-192.6" font-family="Times,serif" font-size="14.00">KeyboardShortcutsComponent </text>
</g>
<!-- KeyboardShortcutsModule&#45;&gt;KeyboardShortcutsComponent  -->
<g id="edge4" class="edge">
<title>KeyboardShortcutsModule&#45;&gt;KeyboardShortcutsComponent </title>
<path fill="none" stroke="black" stroke-dasharray="5,2" d="M435.64,-137.8C478.69,-137.8 522.26,-137.8 522.26,-137.8 522.26,-137.8 522.26,-168.78 522.26,-168.78"/>
<polygon fill="black" stroke="black" points="518.76,-168.78 522.26,-178.78 525.76,-168.78 518.76,-168.78"/>
</g>
<!-- KeyboardShortcutsDirective  -->
<g id="node6" class="node">
<title>KeyboardShortcutsDirective </title>
<polygon fill="#fb8072" stroke="black" points="441.66,-214.8 262.34,-214.8 262.34,-178.8 441.66,-178.8 441.66,-214.8"/>
<text text-anchor="middle" x="352" y="-192.6" font-family="Times,serif" font-size="14.00">KeyboardShortcutsDirective </text>
</g>
<!-- KeyboardShortcutsModule&#45;&gt;KeyboardShortcutsDirective  -->
<g id="edge5" class="edge">
<title>KeyboardShortcutsModule&#45;&gt;KeyboardShortcutsDirective </title>
<path fill="none" stroke="black" stroke-dasharray="5,2" d="M352,-149.91C352,-149.91 352,-168.79 352,-168.79"/>
<polygon fill="black" stroke="black" points="348.5,-168.79 352,-178.79 355.5,-168.79 348.5,-168.79"/>
</g>
<!-- KeyboardShortcutsHelpComponent  -->
<g id="node7" class="node">
<title>KeyboardShortcutsHelpComponent </title>
<polygon fill="#fb8072" stroke="black" points="244.12,-214.8 23.88,-214.8 23.88,-178.8 244.12,-178.8 244.12,-214.8"/>
<text text-anchor="middle" x="134" y="-192.6" font-family="Times,serif" font-size="14.00">KeyboardShortcutsHelpComponent </text>
</g>
<!-- KeyboardShortcutsModule&#45;&gt;KeyboardShortcutsHelpComponent  -->
<g id="edge6" class="edge">
<title>KeyboardShortcutsModule&#45;&gt;KeyboardShortcutsHelpComponent </title>
<path fill="none" stroke="black" stroke-dasharray="5,2" d="M268.12,-137.8C195.2,-137.8 101.15,-137.8 101.15,-137.8 101.15,-137.8 101.15,-168.78 101.15,-168.78"/>
<polygon fill="black" stroke="black" points="97.65,-168.78 101.15,-178.78 104.65,-168.78 97.65,-168.78"/>
</g>
</g>
</svg>
